<svg xmlns="http://www.w3.org/2000/svg" width="20" height="20" viewBox="0 0 20 20"><defs><style>.a{fill:#333;fill-rule:evenodd;}</style></defs><path class="a" d="M12.261,22q-.13,0-.261,0t-.261,0A10,10,0,0,1,4.908,4.95l.042-.042a9.991,9.991,0,0,1,14.106.006l.03.03A9.967,9.967,0,0,1,22,11.857q0,.071,0,.143t0,.152A9.991,9.991,0,0,1,12.261,22Zm1.771-6.55,2.874,2.874a8,8,0,0,1-9.812,0l2.874-2.874A4.007,4.007,0,0,0,14.032,15.446ZM8.554,14.032,5.68,16.906a8,8,0,0,1,0-9.812L8.554,9.968A4.007,4.007,0,0,0,8.554,14.032Zm1.529-1.463q-.008-.026-.015-.051a2,2,0,0,1,1.363-2.436l.051-.015a2,2,0,0,1,2.436,1.363q.008.026.015.051a2,2,0,0,1-1.363,2.436l-.051.015a2,2,0,0,1-2.436-1.363Zm3.95-4.016a4.007,4.007,0,0,0-4.064,0L7.094,5.68a8,8,0,0,1,9.812,0Zm4.288,8.352a8,8,0,0,0,0-9.812L15.446,9.968a4.007,4.007,0,0,1,0,4.064Z" transform="translate(-2 -2)"/></svg>